<svg width="19" height="18" viewBox="0 0 19 18" fill="none" xmlns="http://www.w3.org/2000/svg">
<path d="M13.4517 11H12.6617L12.3817 10.73C13.3617 9.59 13.9517 8.11 13.9517 6.5C13.9517 2.91 11.0417 0 7.45166 0C3.86166 0 0.95166 2.91 0.95166 6.5C0.95166 10.09 3.86166 13 7.45166 13C9.06166 13 10.5417 12.41 11.6817 11.43L11.9517 11.71V12.5L16.9517 17.49L18.4417 16L13.4517 11ZM7.45166 11C4.96166 11 2.95166 8.99 2.95166 6.5C2.95166 4.01 4.96166 2 7.45166 2C9.94166 2 11.9517 4.01 11.9517 6.5C11.9517 8.99 9.94166 11 7.45166 11Z" fill="white"/>
</svg>
